<?xml version="1.0" encoding="utf-8"?>
<!-- Generator: Adobe Illustrator 23.1.0, SVG Export Plug-In . SVG Version: 6.00 Build 0)  -->
<svg version="1.2" baseProfile="tiny" id="Layer_1" xmlns="http://www.w3.org/2000/svg" xmlns:xlink="http://www.w3.org/1999/xlink"
	 x="0px" y="0px" viewBox="0 0 500 500" xml:space="preserve">
<path fill="#FFFFFF" d="M459.3,405c-0.1,0.1-0.1,0.3-0.2,0.4c0-1.2,0-2.5,0-3.7c0.1,0.1,0.1,0.3,0.1,0.4c0.2-1.3,0.2-2.6,0-4
	c-0.1,0.1-0.1,0.2-0.1,0.3c0-1.3,0-2.6-0.1-3.9c0.1,0.1,0.1,0.3,0.2,0.4c0.1-4.5,0.5-9.2,0-13.4c-0.1,0.3-0.2,0.5-0.2,0.8
	c0.1-0.7,0.2-1.4,0.3-2.1c0,0,0,0,0,0c0-0.1,0-0.3-0.1-0.3c0.1,0,0-0.2,0.1-0.3c-0.4,0-0.3,0-0.4,0c0,0,0,0,0,0c1,0,0.5-1.3,0.2-1.1
	c-0.2-3-4.1-8.2-4.8-5.4c1.6,1.3,3.3,3,3.5,4.8l0,0c0.5,2.6-0.1,5.3,0.4,7.9c0.4-0.6,0.5-1.4,0.4-2.1c0.1,0.8,0,1.6-0.4,2.1
	c0,0.6,0,1.1,0.1,1.6c-0.5,0-0.6,8.3-0.1,10.8c0-0.1,0.1-0.2,0.1-0.2c0.1,1.5,0.2,2.9,0.3,4.4c-0.2-1.3-0.4-2.7-0.4-3.8
	c-0.8,2.8,0.2,5.8-0.3,8.4c0.2-0.2,0.3-0.4,0.4-0.6c-0.7,2.1-2.1,3.9-3.8,5c-0.1,0-0.2,0.1-0.3,0.2c-0.3,0.2-0.7,0.3-1.1,0.5
	c0,0,0,0,0,0c-0.3-0.1-0.5,0-0.7,0.2c0,0,0,0,0,0c-0.3,0.1-0.6,0.1-1,0.1c0.1,0.3,0.3,0.5,0.4,0.7c-21.5-2.3-45.7-0.1-68.7-0.8
	c-2-0.1-3.9,0.1-5.8,0.4c0.1-0.1,0.1-0.2,0.1-0.3c-2.6-0.2-5.2,0.2-7.5,0c0,0,0,0,0,0c-0.3-0.2-0.6-0.2-0.9-0.1
	c-0.3-0.1-0.6-0.1-0.9-0.2c-0.1-0.1-0.2-0.1-0.4-0.1c-0.8-0.3-1.6-0.8-2.3-1.6c-2.5,1.5,2,2.7,6.2,3.1c-2,0-4-0.3-6.1-1.3
	c0.8,3.6,31.1,1.4,40.4,2c15.2-0.6,31.3,1.2,46.2-0.6c1.3,0.4,3.3-1.6,4.8-2.5c1.9,0.2,0.6,18.5,0.7,33.1c0.6,3.4-8.2,1.2-69.5,1.6
	c-8.1-0.7-17.4,1.6-24.8-0.9c-0.1,0.2-0.1,0.3-0.1,0.4c0-0.1,0-0.3,0.1-0.4c-0.2-3.5-0.3-6.9-0.3-10.4c0.1,3.3,0.2,6.6,0.3,9.7
	c0.5-10.3,0.4-21.5,0-31.7c-0.1,1.9-0.2,3.8-0.2,5.8c0-1.6,0-3.2-0.1-4.9c0.3-1.4,0.2-1.9,0.2-2.2c0.2,0.1,0.7,0,1.4,0
	c0.8-1.1,0.7-1-0.1-2c-0.8-1.2-0.3-0.1-0.4,0.4c-0.1,0.1-0.1,0.1-0.1,0.2c0-0.1,0.1-0.1,0.1-0.2c-0.3-1.5-0.6-3-0.8-4.6
	c1.1-6.6-1-20,0.6-27.9c-0.3,0.2-0.6,0.7-0.7,1.6c0-0.3,0-0.7,0-1c3.9-4.6,3.4-5.5,5.2-0.9c-0.1,0.1,0,0.2,0.1,0.3
	c0,0.1,0.1,0.2,0.1,0.3c0,0.1,0,0.2,0.1,0.3c0.2,0.4,0.4,0.9,0.6,1.4c-0.1-0.1,0,0.2,0.1,0.2c0.3,0.6,0.6,1.3,0.9,2
	c0,0.3,0.1,0.5,0.3,0.7c0.5,1.2,1.2,2.5,1.9,3.9c0,0,0,0,0,0.1c0.9,1.8,2,3.9,3.4,6.2c-0.1,0.3,0.9,0.5,2.8,0.6c0,0-0.1,0.1-0.1,0.2
	c0.3,0.2,0.5,0.1,0.6-0.1c0,0,0,0,0,0c2.2,0.1,5.3,0.2,9.1,0.1c0.8,0.2,1.7,0.2,2.5,0c1.4,0,2.8,0,4.3,0c0.5,0.2,1,0.2,1.5,0.1
	c0,0-0.1,0-0.1-0.1c0.7,0,1.4,0,2.2,0c0,0-0.1,0.1-0.1,0.1c0.6,0.1,1.2,0.1,1.7-0.1c3.9,0,7.9-0.1,12-0.1c-0.2,0-0.4,0.1-0.6,0.1
	c1.2,0.3,2.4,0.4,3.6,0c-0.2-0.1-0.4-0.1-0.6-0.2c1,0,1.9,0,2.9,0c-0.2,0-0.4,0.1-0.6,0.2c1.1,0.4,2.2,0.3,3.2,0
	c-0.2-0.1-0.4-0.1-0.5-0.1c3.1,0,6,0.1,8.8,0.1c3.4,0,6.9,0,10.2-0.1c-0.1,0-0.3,0.1-0.4,0.1c0.7,0.4,1.5,0.3,2.2,0.1
	c-0.2-0.1-0.3-0.2-0.5-0.3c1.4,0.7,3.1,0.6,3.8-0.6c0,0,0,0,0,0c0,0,0,0,0,0c0.4-0.1,0.6-0.4,0.5-0.8c-0.1,0-0.1,0-0.1,0
	c0.1-0.2,0.2-0.4,0.3-0.6c0,0,0,0,0,0.1c0.3-0.2,0.4-0.5,0.4-0.8c0.1-0.1,0.1-0.2,0.2-0.3c0,0,0,0.1,0,0.1c0.6-0.2,0.7-0.8,0.8-1.4
	c0,0-0.1,0-0.1,0.1c1.8-3.2,3.6-6.4,5-10.5c0.3,0.2,1.6-3.1,1.8-4.2c0.7-1.2,2-0.5,2-1.8c-1.8-1.8,0-2.7-0.2-4.7
	c5-16.1-3.1-32.8-17.2-41.3c-2.8-1.9-4.8-2.2-6.9-4c1-5.2,2.9-11,7.2-15c4.4,2.4-7,3.1,18.1,3.3c2.5-1.7,0.9-7.2,1.3-12.4
	c1.1-21.4-8.2-27.5-29.7-26c-10.2-0.1-6.1,2-7.4-15.6c-1.7-4.9-15.1-5.7-18.9-1.1c-1.7,4.8-0.2,10-0.9,14.7
	c1.6,6.2-23.4-4.2-32.7,8.8c-4.4,5.2-4.3,11.5-4.1,18.1c0.9,14.6-4.5,12.3,13.3,12.3c2.3-0.1,4.3,0.4,5.5-1.3c4.6,3,6.1,7.6,7,12.1
	c6,5.1-27.9,7.4-24.5,43.4c0.4,0.5,0.7,0.8,0.9,0.9c-0.7,0.5-0.1,1.5-0.2,2c4.1,10.9-3.8,2.7-3,17.3c0.2,21-0.1,41,0.1,62
	c0,0.5,0.2,0.8,0.4,1c-0.4,0-0.6,0,0.1,0.6c17.6,0.1,35.4-0.2,52.9,0.2c13.3-0.5,25.8,0,39.2-0.2c1.8-0.1,4.2,0.5,4.5-1.2
	c0-12,0-23.1,0-35.1c0-2-0.7-0.1-0.6,0.4c0,0.1-0.1,0.1-0.1,0.2c0.1-0.3,0.1-1.5,0.3-1.4c0-0.6,0-1.2,0-1.7c0,0,0,0.1,0,0.1
	C459.8,407.7,459.3,405.7,459.3,405z"/>
<rect x="287.6" y="8.8" fill="#FFFFFF" stroke="#231F20" stroke-width="1.1802" stroke-miterlimit="10" width="200.7" height="227.5"/>
<rect x="10.4" y="38.1" fill="#FFFFFF" stroke="#231F20" stroke-width="1.1802" stroke-miterlimit="10" width="119.7" height="135.2"/>
<rect x="151.4" y="20" fill="#FFFFFF" stroke="#231F20" stroke-width="1.1802" stroke-miterlimit="10" width="61.8" height="67.9"/>
<g>
	<path fill="#231F20" d="M352.2,154.6c0.4-1-2.4-0.5-2.9,0.4c-17.3,10.8-12-1.9-23.3,23.2c-4,5.7-4-9.6-11.1,8.9
		c-2.1,5.5-6,10.6-6.6,15.9c-3.8,6.8-6.6,16-10.9,21.6c-1.9-0.8,5.2-11,9.5-22.2c1-2.2-6.8-7.7-9-10.5c-8.2-8.6-16.9-14.8-30.2-18.5
		c-2.2,0.5,4,12.4,4.6,18.4c0,1.7-9.1,2.8-5.7,4.5c1.8,1.4,5.4,1.5,5.8,3.7c-0.3,0.1-4.7,33.7-5.3,22.5c1.1-7.3,3.4-15.1,3.2-22.4
		c-1.2-1.9-6-2.4-7.4-4.3c-0.4-2.6,6.6-2.2,7.6-4.8c-1.3-5.7-3.3-11-4.9-16.7c-0.8-2.1-3.6-2.4-5.8-2.8c-2.1-1.2,0.1,10.3,0.5,29.4
		c1.1,12.4,1.4,11.8-4.9,1.9c-4.6-6.5-8.7-13.1-13-19.6c-5.2-6.6-6.1-14-12.3-9.1c0.2,7,0.9,14.9,2.8,21.5c3.8,1.3,8.1,0,11.7,0.9
		c0.5,6-8.3,6.9,0.7,13.2c5,5.3,12.6,10.2,16.1,15.6c-1.1,1.2-13.5-11.5-22.1-19.5c4-11.5,7.8-6.6-7.7-8.7
		c-2.3-6.8-1.6-14.8-3.3-22.1c-1.2-1.1-8.5,2-9.8,1.9c-12.2,3.4-14.2,7.6-20.8,15.8c0.8,2.3,5.8,0.4,6,3.1c-5.6,2.6-6.7-6.5-9.3,11
		c-5.7,22.8-9.2,34.3-2.1,61.2c1.3,6.1,2.8,11.1,3.7,16.4c2,9,6.9-0.8,9,5.7c1.4,0.5-1.4-3.6,0.7-3.1c2.2-1.8,18.3-2.3,19.3-6.2
		c0.8-0.5-6.4-21.7-3.7-20.7c1.7,3,4.6,15.5,5.3,22.5c-2.5,1.6-4.6,0.7-1.8,3.8c2.4,7.2,9.2,11.6,16.3,12.2c5.3,1.5-0.8,5.2-4.3,4.2
		c-4.1-1-6.8-1.7-7.3-6.4c-3.9-2.9,4.2,19.5,0,21.1c-1.9,1.4-3.1-0.7-3.4-2.1c0.3,4.8-3.1,6.9-6.4,3.3c-1.5,0.2-2.7,1.7-4.2,0.6
		c-5.7-11.1-2.8,26.1-3.8,45.7c0.7,4.8,0.2,8.4,1.4,13c0.7,1.5,3.1,0.1,4.1,1.2c23.3-1.2,47.4,0.1,71.5-0.5c1.6,0.8,3.6-0.5,2.7-1.6
		c0.5-3.4,1.3-6.2,1-8.9c0.2-2.7,1.3-4.8,0.5-7.6c1.1-5.3,1.6-11.2,1.4-16.9c1.3-10.9,2.1-22.7,0.9-34.1c1.5-5.7-3.6-32.3-6.4-42.9
		c-4.1-14.4-13.8-30.3-10.1-50.4c-0.1-4.1,5.6-2,4.9-11.6c-0.2-3.9-3.9-5.8-6.4-8.3c-0.1-1.3-3-10-1.4-10.2
		c2.5,1.6,0.7,7.8,3.5,10.3c2.4,1.5,4,3.1,5,5.6c2,4.8,0.4,9.7-3.8,13.1c-1.5,1.6,7.5,6.9,6.6,8.6c2.6,0.5,4.5,3.9,7.7,7
		c0.2,0,0.4,0.1,0.6,0.2c0.8,0.6,1.5,1.3,2.2,2.1c0.1,0.1,0.3,0.2,0.4,0.3c0,0.1,0.1,0.2,0.1,0.3c0.2,0.2,0.4,0.4,0.6,0.7
		c0.5,0.6,1,1.2,1.4,1.9c4,1.4,6.9,3.1,11.7,2.6c11.1-1.8,6.5-2.6,10.9-2.9c0.3-0.3,0.5-0.6,0.8-0.8c0.2-0.2,0.4-0.4,0.6-0.6
		c-0.9-1.1,2.8-3.6,3.2-4.8c3.8-8.4,7.7-16.9,12.1-25.1c1.8-5.5,6-10,6.5-15.4c-1.8-1.7-4.5-0.8-4.4-3.5c-1.8,1.6-3.2-0.1-4.9-1
		c-13-6.5-11.5,0.2-2.7-20.6C336.2,160.9,344.4,160.7,352.2,154.6z M221.3,256.7c-1.2,3.3-2.9-8.6-4-12.4
		c-0.9-6.3,2.2-13.4,5.1-27.2c2.7-19.9,4.4,7.2,4.8,16.1C228.2,241.3,223.9,249.2,221.3,256.7z"/>
	<path fill="#231F20" d="M59.6,361c4.8-11.5,11-23,14.6-35c0.2-31.6,0.5-62.7,0.8-94.1c-0.8-6.2,2.1-3.8,6.4-4.4
		c11.3-0.3,22.1,0,33.3-0.4c49.4-1.3,36.6-4.3,42.3,11.5c5.8,22.6,11.9,44.5,17.4,67.2c5.1,23.7,2.9,47.6-6.7,69.7
		c-6.2,17.6-12.1,34.7-18.3,52.3c-0.6,1.4-1.5,1.6-3.2,1.1c-14.1-2.4-27.4-4.5-41.2-7.3c-1.1-0.4-2.9,0.1-2.5-1.6
		c2.1-5.7,3.8-12.1,5.8-18.1c22.3-72.8,23.7-70.6,21.7-76.1c-3.2-9.9-4.8-22.4-8.5-30.5c-0.9,17.6-0.3,36.9-5.8,54.4
		c-7.4,19-15.2,37.7-21.9,57.2c-7.4,20.3-3.3,17.2-13.8,15.3c-14.2-2.8-27.6-5.6-41.8-9C43.2,396.5,53.3,378.4,59.6,361z
		 M120.9,279.9c0.4,1.3-1.8,10.6,1.1,8c0.5-40.1-1.2-30.2,8.3-34.4c2.6-2.3-8.1,0.8-8.7,1.3C120.2,262.5,121.1,271.6,120.9,279.9z"
		/>
	<path fill="#231F20" d="M266.4,105.5c-5.5,8.6-12.1,5.7-11,11.4c-0.4,2-1.3,4.4-2.4,6.6c-6.5,10.9-9.2,5.5,1.3,9.4
		c0,0.2,0.1,0.2,0.4,0.3c4,1.7,8.4,11.7,1.8,3.7c-4.2-2.8-6.4-3.7-8,1.4c-2.2,3.5-5.2,6.2-8.4,8.7c-2.3,0.9,0.9,7.4-2.4,2.8
		c-4.5-11.6,4.7-16.1-1.2-14.4c-3.8,2-8.3,1-12.4,1c-1-0.4,0.8-1.4-0.4-2c-16.4-4-21.3-26.6-10-38.4c1.6-1.5,2.7-3.4,5-4.1
		c1.3,0.8,1.9-0.8,2.9-1.4c2.1-1.2-2.4-2.6,3.9-2.3c2.5-2.2,6.9,2.1,8.6-1.6C246.2,64.1,279.6,82.9,266.4,105.5z"/>
	<path fill="#E6A9C5" d="M287.6,379.5c-4.8,65.1-6,63.1-3.4,67.6c10.2,20.5,19.6,28.6-1.4,20.2c-18-17.1-26.8-29-27.9-26.5
		c0.3-19.4-2.1-41.8-1.5-59.1c1-4.2,6.6-1.7,9.8-2.3C271.7,379.4,279.4,379.1,287.6,379.5z"/>
	<path fill="#377BBF" d="M153.7,226.4c-104.5,0.8-79.3,4.2-83.1-5.1c24.1-7.4,49.9-13.2,75.2-20.2c2.9-1.5-1.3-4.4,0.8-5.6
		c15.9-4.8,13.6-5.4,14.8,0C169,236.5,171,222.4,153.7,226.4z"/>
	<path fill="#231F20" d="M159.9,191.4c-1.4,0.3-5.2,2.7-5.5,0.5c-4.1-6.5-7.4-12.9-11.1-19.8c0.5-2,8.1-2.9,9.3-3.6
		c16-10.7,12.9-12.7,27.3-14.3c4.4,1-1.5-3.6-0.7-5.8c-0.9-4.2-0.1-8.7-0.4-13.4c0.9-39.1-5.3-29.3,15.4-30.3
		c2.4,0.4,6.1-1.7,6.5,1.6c-0.6,41.7,3.5,47.5-9.8,51.3c-1,1.8,6.4,0.3,3.8,7.1c3.3,2.9,4.8,4.1,1.6,7.8c-2.1,8.2,3.4,9,0.3,12.4
		c0.9-3.8,0.1-3.7-1.7-6.3c1.2-2,0.4-3.4,0.6-5.7c0.8-1.3,2.4-2.7,2.1-4.2c0.1-1.8-2.2-2.4-3.5-3.8c1.4-3.5-0.4-6.7-4.3-6.2
		c-0.5,0.1-1.3,1.1,0.4,1.2c3.8-0.2,4.5,3.7,1.3,5c-2.1,0.8-6.6-1.3-7.2,0.6c1.7,3.1,15.9-2.2,11.2,5.8c-2.3,1.7-9.9-1.4-10,1.1
		c1,1.9,4.8-0.2,7,0.8c2.7,0.7,2.6,4.3-0.1,5c-1.4,0.3-11.6-1.1-7.4,1.3c3.6-0.2,15.4-0.1,9,5.5c-1.3,0-3.1,0.7-0.8,1.1
		c0.5-0.1,3.3-0.7,1.1,0.4c-2.2,0.9-3.6-1.1-3.8,2.1c-3.5-0.3,1.1-2-0.4-3.4c-2.1-0.5-11.7,6.9-4.2,3.6c-0.5,0.7-0.2,2.6,1.2,2.2
		c-22.1,8,4.9,2.7,10.7,4.6c-1.8,0.3-1.5,2.1-2.1,3.2c1.7-3.9-18.3-1-19.8-1.8c-7.2,0.6-1.3-3.2-2.7-1.4c-1.3,1.9,5,0.6,3.7-1.2
		c-0.5-0.5-0.4-0.6,0.4-1.1c1.4-0.8,6.9-1.7,3.4-2.6c3.5-2.2-10.4-0.9-11.4-1.6C167.1,188,154.6,190.6,159.9,191.4z M184.8,157.7
		c-2.3,0.5-14.5-1.5-11.8,1.2c4.8,0.4,10.3,0.9,14.9,1c0.6-0.5-1.2-1.2-0.2-1.2C191.6,157.9,184.5,155.2,184.8,157.7z M199.1,127.4
		c-1-27,5.5-20.8-17.9-21.1c-1.3,0.8-0.7,1.5-0.9,3.5c0.2,13.4-0.5,24.2,0.1,38.3c0.9,8.2,11.4,9.9,16.1,4.9
		C201.4,148,198.3,131.6,199.1,127.4z"/>
	<path fill="#231F20" d="M39,485.8C6.8,485,17.2,490,23.3,468.9c30.8,2,67.6-0.3,100.9,1c-1.2,5.1-8.7,7.2-12.6,10.8
		c-5.8,7.2-11.9,4.3-18.9,4.8c-3.2-0.5-6.4,1.3-9.2-0.6c-5.6-5.5-17.4-5.8-24.6-3c-2.3,0.5-3.8,2.6-6.2,3.9
		C48.5,485.4,43.5,485.8,39,485.8z"/>
	<path fill="#231F20" d="M255,440.8c0.9-0.7,1.3-0.7,2.4,0.8c7.9,8.3,15.5,15.9,23.7,24c8.8,9.3,27.3,0.6,32.7,14.7
		c-0.1,1.1,2.5,3.3,1,4.6c-3.4-0.4-8-0.1-11.7-0.2c-5.1-0.7-10.6,2-13.9-1.5c-8.8-12.2-21.2-24.2-17.8-13.7
		c0.4,5.4,2.7,10.8,1.8,15.2c-7.1,0.1-14.8,0.5-21.8-0.2c-0.1-7.9,2.6-16.2,3.1-24.3C251.4,451,254.5,448,255,440.8z"/>
	<path fill="#231F20" d="M212.8,453.8c-5.9-14.2-5.2-0.3-10.4,11.1c-0.4,2.7-8.8-5.5-8.8-3.3c-0.4,0-0.9-0.3-1.1-1
		c-1.5-8.2-8.8-11.1-6.3-11.7c5.7-6.5,11.3-13.3,11.3-18.4c1-3.9,4.1-6.3,6.7-9.5c1.7-0.7,2.5-8.5,3.3-5.3c-0.7,2.5-0.2,5,1.1,7.3
		c11.6,34.4,5.8,31.2,20.5,41.3c5.1,4,10.8,6.8,10.5,14.5c0.6,10.5-2.2,4.8-21.5-4.6C214.7,470.4,215.6,458.2,212.8,453.8z"/>
	<path fill="#377BBF" d="M130.9,132.9c24.4,0.7,20.7,24.4,24.1,31.7c0.8,0.4-0.2,0.7-0.8,1.5c-17.5,7.9-13.4,2.5-15.8,1.8
		c-14.3,3-15.3,7.7-10.1-6.7c3.8-10.5,1.7-5.9-1.1-13.7c0-1.5,2.3-1.6,2.6-2.9c-0.1-1-3.4-7.1-3.6-4.4c-0.1,1,0.1,1.3,1,2.6
		c2.2,3.2-3.1,2.8-1.7,5.1c1,2.1,4,5.1,3.4,8c-2.3,5.2-3.8,10.7-5.8,15.9c-2.5,2.9,0-10.1-0.3-11.2c1-7.2,0.5-25.4,2.8-23.9
		C131.6,138.9,131.4,139.3,130.9,132.9z"/>
	<path fill="#231F20" d="M123.1,480.7c-1.7,0.5-2.5,2.9-4.7,2.9c-0.5-0.4-8.7,0.8-8-0.7c23.5-14.6,11.1-10.7,15.7-15.5
		c75.1,0,63.9,1.4,65.6-3.2c0.6-0.7,1.9-2.9,1.3-0.1c-0.6,8.3-14.7,14.1-20.6,18.9c-3.7,1-8.7,0.2-12.9,0.5c-5.7-0.4-8,1.7-12.5-2.9
		C140,477,129,477.3,123.1,480.7z"/>
	<path fill="#BA115F" d="M38,411.2c-2.1,3.6,8.9,2.9,11,4.5c25.9,6.2,22.4,3,20.8,8.3c-1.4,2.8-2,6.2-3,8c-3.5-0.7-6.8,1.7-7.6,5.1
		c-0.9,4.6-3.1,8.3-6.9,10.8c-3,3.9-10.4-6.7-12.3-7.9c-0.6-3.1,2.7-7.1,3.5-10.8c1.7-4.5,4.8-8.6,5.2-12.9
		C46.2,414.5,33.5,415.3,38,411.2z"/>
	<path fill="#231F20" d="M39.5,439.4c3.9,3.5,9.7,11.1,11.9,9.1c5.5-2.9,6.8-7.9,8.7-13.3c3-5.3,9.4-3.7,12.8,0.5
		c5.9,4.9,10.5,9.9,16.6,14.2c12.6,3,8.9-9.4,14.5-13.3c9.6,4.9,9.8,15.4,17.9,6.1c3.6-3.7,2.7-10.7,7.3-12.6
		c6.4-2.4,9.9,4.5,14.6,7.8c6.8,5.1,8.3,9.4,13.7,10c12.9,0.7,28.1-2.4,28.9,2.6c-15.2-4.5-27.3,3.7-37.4-5.7
		c-1.7,0.2-16,0.7-9.5-1.5c4.6,0.2,11.6,0.9,4.1-3.2c-3.6-0.5-9.9,1.3-10.6-0.9c1.4-1.3,5.7-0.6,7.9-0.5c3.5,0-7.1-7.8-7.8-7.6
		c-8.1-0.9-5.9,10.1-11.2,13.7c-7.6,8.2-9.4-0.2-15.1-4.1c-4.2-5.6-4.8,3.3-6.8,6c-5.4,7.8,19-1.7,23.7,7.5c3.4,2.8,4.9,14,2.9,13.2
		c-0.9-0.2-1,0.3-1.1-1.1c2.1-7.5-4.8-16.6-13.4-15c-27.9-0.4-20.9,1.9-28.3-4c-3.5-1-7.2,0-10.9-0.3c-5.2-2.5,7.2-1.1,8-1.8
		c-1.3-4.9-8.8-2.3-12.7-2.9c-2-0.2-1.3-2.2,0.4-1.6c3.2-0.4,10.8,1.4,4.5-2.8c-2.8-2.8-5.7-5.9-9.7-3.9c-1.7,0.8-2.5,2.8-3,4.6
		c-1.2,5.1-4.2,8.9-8.6,11.4c-3.7,3.7-12.5-11.4-14.3-9c-3.8,6.9-11.8,28.9-13.9,27.2c2.9-8.4,7.4-16.8,11.3-25.1
		C36.6,441,36,437.3,39.5,439.4z"/>
	<path fill="#231F20" d="M132.5,80.3C129.1,85,119.1,86,118,90.4c3.5-2.5,8.1-1.6,12-3.4c5.4-5.6,7.1-0.9,1.5,2.5
		c-1.9,1-4.4,1.4-7,1.5c-11,2.6-1.3,3,1.3,7.2c5.5,5.8,1.2,18.6,0.5,9.7c-2.7-8.5-12.5-10.4-18.4-4.2c-3,2-2.7,12.3-4.4,5.4
		c-2.3-17.6,16.2-11.5,2.9-22.5c-2.5-2-6.4-0.9-7.7-2.8c-1.3-5.7,11.5,1.9,11.3,0.9c0-4.7,1.3-8,3.4-11.8c1-2.2,1.4-7.5,4.3-4.5
		c0.2,5.3-11.5,22,0.8,10.4c2.8-1.8,2.3-6.1,4.6-5.2c5.7,3.6-10.5,11.1-8.3,15.6c3-5.2,8-6,12.7-8.3c2.5-1.6,3.3-4.1,5.1-6.2
		C136.2,74.5,133.2,78.7,132.5,80.3z"/>
	<path fill="#E6A9C5" d="M238.9,151.6c1-0.4,0.7-0.9,0.2-2c-0.2-3.4,7.1-6.7,8.3-9.6c3.5-7,4.5-6.3,10-2.2c2.3,3.7,3.3,1.2,3.5,3.6
		C263.9,158.5,247.6,166.3,238.9,151.6z M251,154.5c11-0.3-4.3-5.3-5.9-4.8C244.7,151.9,249.2,154.4,251,154.5z"/>
	<path fill="#BA115F" d="M130.9,132.9c2.2,10.7-6.5,1.6-11.6,1.5c-1.2,1.1-2.4,2.3-4.1,1.8c-1.4-0.2-3-2.1-4.1-0.8
		c-1.1,1.4-2.8,1.4-3.9,3.1c-1,1.5-3.5,0.6-4.5,2.9c-1.1,0.2-1-0.7-0.9-2.5c-1.1-15.6-5.5-17,8.8-9.3c2.5-0.1,4.8-2.7,7.4-1.2
		C126.3,130.4,130.6,113,130.9,132.9z"/>
	<path fill="#231F20" d="M144.4,169.7c13.5-2.8,15.6-11.8,25.9-15.3c10.8-1.9,7.3,0.7-0.8,1.9c-12.2,7.6-13.4,12.2-24.9,14.8
		c-3.7,0.4,0.7,4.5,1.3,6.4c3,5.4,5.6,10.2,8.7,15.5c-1.6-0.1-3.2,0.7-4.8,1.4c-1.7,0-3.8,0.1-5,2.2
		C138.3,164,137.5,173.6,144.4,169.7z"/>
	<path fill="#E6A9C5" d="M254.4,162.7c0.7,26.1,1.1,20.9-6,14.8c-2.6-2.6-6-4.8-7.8-7.9c0-4.7-0.1-8.9,0.3-13.8
		C243.4,160.8,249.6,164,254.4,162.7z"/>
	<path fill="#231F20" d="M41.7,187.5c0.2-0.6,1-1,1.3-2c26.7-39.3,30.4-53.8,49.3-53.3c1.8,0.6,0.8,1.5-1.3,1.4
		c-20.4,0.8-26.5,25.5-37.2,38.1c-10.6,16.6-29.9,36.3-5.4,47.4c7.4,4.2-6.9,0-7.8-3.2c-0.1-0.1-0.2-0.2-0.2-0.3
		c0,0-0.1-0.1-0.1-0.1c-0.1-0.1,0,0-0.3-0.3c-5.2-5.6-6.4-15-2.2-21.9c0.1-0.1,0,0,0.3-0.4c0.5-0.9,1.8-2.1,2.3-3.5
		C41,188.9,41.4,188.2,41.7,187.5z"/>
	<path fill="#231F20" d="M229.6,464.5c-1.4-1.9-4.5-1.4-5.6-4.1c1,0.3,3.4,3.5,4,1c0.1-9.6,1.2-18.9,0.9-28.5
		c5-17.7,26.1-50.7,22.8-53.7c14.7-0.8,49.8,0.1,31.4,0.1c-29.4,0.5-28-1.7-29.9,2.8C226.1,443.3,230.5,419.5,229.6,464.5z"/>
	<path fill="#231F20" d="M50.4,221.2c-0.7-1.9,0.5-0.7,2.1-0.5c11.1,2.9,21.1-2.5,31.9-4.8c18.5-4.3,36.9-10.5,54.9-14.1
		c1.3,0.1-0.5,0.9-1.3,1C31.9,232.2,65.8,220.8,50.4,221.2z"/>
	<path fill="#231F20" d="M219.4,133.3c2.7,0.7,4.7,0.4,4.7,3.2c0.6,0.5,10.3-0.3,7.6,0.5c-30.5,3.2-38.5-38.3-11.3-47.9
		c1.2-1.3,2.8,1.3,0.8,1.8c-0.5,0.7-2.3,2.2-2.4,1c0.3-0.3,0.7-0.6,0-0.9C195.7,102.7,206.4,131.7,219.4,133.3z"/>
	<path fill="#231F20" d="M195.3,185.9c-0.5-0.1-4,0.9-2.8-0.7c2.1,0.4,3.9-1.7,3.1-3.8c-1.3-1.8-4-1.4-6.2-1.7
		c-1.5-0.4-5.9,0.9-5.3-1.2c3-1.8,8.1,1.9,10.2-1.7c1.4-6.7-8.5-1.8-8.8-4.3c1.4-3.2,10.5,2.3,10.9-3.1c0.2-5-9.5-1.8-11.9-3.1
		c-0.8-0.9,0.5-1.9,1.7-1.5c2.8,1,9.8,0,6.5-4.1c-1-0.9-6.4-1-1.9-2c5,1,3.5,3.6,3.4,6.6c2.3,1.4,4.2,3,2.9,5.3
		c-2.8,2.8-1,5.2-2.3,8.5C197,180.8,198,184.5,195.3,185.9z"/>
	<path fill="#231F20" d="M254.4,162.7c-9.2,2.4-15.9-9.4-12.8-7.8C249.8,164.6,256.3,153.8,254.4,162.7z"/>
	<path fill="#231F20" d="M237.6,137.1c-2.1,5.8-1.2,8.1,0.1,12.7C235.2,146,235.2,140,237.6,137.1z"/>
	<path fill="#231F20" d="M199.1,191c0.1,0.6-2,2.9-2.6,1.7c-0.1-2.5-4.9-1.8-5.6-3.9C193.6,189.6,197.5,192.9,199.1,191z"/>
	<path fill="#231F20" d="M233.1,136.7c1.3-0.2,6.2-3.5,5.4-0.2c-0.1,0.1-1,0.9-0.6-0.1C238.1,134.3,234.6,137.2,233.1,136.7z"/>
	<path fill="#231F20" d="M51.1,221.4c0.9-0.3,2.3-0.6,3.8,0.1C56.3,223.3,52,221.9,51.1,221.4z"/>
	<path fill="#231F20" d="M61.9,222.7c0.5,0.4-1.7,0.9-1.1-0.1C61,222.4,61.3,222.3,61.9,222.7z"/>
	<path fill="#231F20" d="M224.9,88.1c-0.3-0.2,0.8-0.6,0.5,0.2C225.4,88.4,225.2,88.4,224.9,88.1z"/>
	<path fill="#231F20" d="M199.8,190c0,0.4-0.1,0.7-0.5,0.7C199.2,190.4,199.4,190.2,199.8,190z"/>
	<path fill="#231F20" d="M287.1,223.4c-0.1,0.3-0.8-0.7,0-0.6C287.2,222.9,287.2,223,287.1,223.4z"/>
	<path fill="#231F20" d="M200.1,189.4c-0.1,0.1-0.1,0.2-0.2,0.3C200,189.7,200,189.5,200.1,189.4z"/>
	<path fill="#231F20" d="M200.8,188.5c-0.1,0.1-0.2,0.2-0.2,0.3C200.6,188.7,200.7,188.6,200.8,188.5z"/>
	<path fill="#231F20" d="M190.6,188.5c0.1,0.1,0.2,0.2,0.3,0.3C191,188.9,190.4,189,190.6,188.5z"/>
	<path fill="#231F20" d="M230.4,465.2c-0.1-0.1-0.1-0.1-0.2-0.2C230.2,465.1,230.3,465.1,230.4,465.2z"/>
	<path fill="#231F20" d="M237.8,149.9c0.1,0.1,0.2,0.2,0.3,0.3C237.8,150.2,237.7,150.1,237.8,149.9z"/>
	<path fill="#F6D563" d="M330.2,169.3c0,2.1-1.6,2.5-2.2,4c0.2-0.1,0.2-0.1,0.5-0.4c-0.1,0.2-1.1,3.6-1.4,2.1
		c-0.1-1.7-2.3-2-1.9-3.8c0.6-1,1.5,0.7,2.4,0.2c1.7-1.3,1.1-1.4,0-3.1c0.1-3.8-21.8-1.1-21.8-1.1c-1.1-2.3-1.8-0.7-3.6-0.3
		c-1.1-0.7-2-1.4-3.1-0.1c-0.6-48.3,0.5-97.3-0.4-145.3c31.4-1.8,63.7,0.1,95.3-0.6c22.7,0,45.3,0,68.1,0c4.6,0.6,15.4-1.9,14.2,2.4
		c-0.6,50.7,0.4,101.5-0.3,152.3c-1-2.7,1.3-10-2.4-9.3c-26.1,1.3-46.1-1.4-51.1,1.2c2.8-14.1,0.4-30.4-9.9-41.3
		c-3.4-4.2-9.3-2.1-14.2-2.5c-4.4,0.8-7.4-1.2-8.6,0.2c3.2,13.8-5.1,18.7-2.2,15.2c4.4-6.9,2.1-14.4-0.7-21.2
		c-1.4-5.9-6.9-9.7-12.1-11.9c-1.4-1-3.2-4.1-0.4-1.7c1.4-0.2-2.4-4.4-3.4-3.6c-0.7,0.9,3.1,2.6,0.9,3c-4.9-0.1-2.6,0.3-6,1.2
		c-2.6,0.1-6.6,2.7-4.6,4.8c-1.4,1.4-1.5,0.2-1.2,2.7c-0.2,2-4.8-2-4.9,2.5c-0.3,7.7,1.4,16.1-0.3,23.2c-3.1,4.8-2.8,15.9-3.9,15.5
		c-11.9,8.8-17.8,3.8-20.6,15.2c-1,1.3,0.9-2.6-1.6-1C328.9,168.4,328.9,169,330.2,169.3z M380.4,57.1c-0.5,6.9,5.6,21.8,10.3,20.5
		c1.5,0.5,0.7,2.8,2.6,2.5c13.9,2.7,21.6-9.3,22.2-20.9C417.1,25.2,381,24.4,380.4,57.1z M319.4,102.9c-0.6,9.7,6.6,20.4,12.4,24.8
		c14.3,6.4,13-3,17.3-3.2c1.4-3.5,1.9-7.6,1.9-11.7c0.5-4.1-1-13.8-3.1-13.9c-0.1-2.8,0.1-1.8-2.2-3.2c0.1-2,0.1-3.4-1.9-5.1
		C331,76.8,318.2,87.9,319.4,102.9z M371.2,99.9c5.3-0.6,5.2-5.6,7.5-8.6c-0.5-1.1-1.7-0.6-0.2-2.3c-0.1-1.7,0.3-2.5,1.9-3.7
		c0.8-1.3-2.5-1.8-1.1-3.6c0.7-6.8-3.7-10.9-4.4-16.1c-5.5-4.2-7.1-9-14-8.3c-16.7,1.6-9,34.2-3.5,33.6c0.9,1.5-3.1,0.2,0.8,2.8
		c1.1,3.8,7.5,5.9,10.6,7.2C369.6,100.8,370,99.2,371.2,99.9z M452,115.4c-0.6-2.8,1.1-7.1-2.6-8.1c-2.7-5.3-6.2-5.2-10.8-5
		c-3.3,0.2-5,3.4-7.9,4.8c-1.8,1.9-4.5,2.6-4.3,5.5c-0.3,1.1-2.3,0.2-1.9,1.5c-1.3,4.5-5.3,9.2-4.5,14.9c-0.1,5,0.8,10.2,6.6,11.4
		C439.4,145.5,452,125.1,452,115.4z M449.6,77.1c1.7-16.5-19.5-15.2-23.8-3.6c-1.4,1.8-4.9,4.1-2.3,6.2c-0.2,1.9-2.4,3.7-1.8,6.2
		C427.9,108.2,451.5,90.8,449.6,77.1z M403.4,122.2c3,0.4,5.1-2.6,7.7-4c1.2-3.6,1.2-2.2,4.2-4.2c0.4-1-2.7-1.2-1.3-2.6
		c2.8-1.8,2.8-0.1,2.5-3.3c2.3-0.9,0.9-3.9,1.4-6.2c1.2-3.6-0.2-6-0.1-9.7c0.1-1.8-2.1-1.2-3.1-2.1c-0.9-2.8-4.1-1.1-5.8-2.4
		c-9.7,0.9-16.5,16.9-15.5,23.3C396.3,126.7,399.4,121.5,403.4,122.2z M388.4,119.9c1.5-2.6-0.5-8.8,0.1-12.6
		c-0.3-1.2,1.4-2.5,0.9-4c-0.9-1.3-0.5-6.9-2.5-3.9C389.2,105.6,387.1,113.2,388.4,119.9z M415.4,87.8
		C415.6,88,415.6,88.1,415.4,87.8C414.7,87.8,415,88.9,415.4,87.8z"/>
	<path fill="#FAB516" d="M349.7,222.4c-23.9-0.1-19,2.9-10.7-16.9c2.7-4.7,4.7-10,7.6-15.1c1.2-3-7.3-1.5-3.9-6.4
		c1.9-2.8,15.6-3.2,16.3-2.5c5,8.5,5.5,1.8,5.6,8.1c-1.9,3.9-13.7,5.2-15.4,7.9c-1.2,2.6,16.5,0.6,17.2,1.2c3.1-0.4,20,1.2,14.6-1.8
		c-4.1-2.4-19-5.3-13.7-10.4c13.1,0.2,25.9,0,38.9,0.1c10.9,1.9,12.2-12.9,16.8-18.9c5.2-2.6,13.3-0.2,19.1-0.9
		c41.7,0.4,32.2-2.7,33.6,8.4c-0.8,15.5,1.1,31.3-0.7,46.5c-0.5,2.3-2.9,0.6-4.4,0.3c-3.8,1.7-8,0.4-12.3,0.8
		C422,222.5,385.6,222.5,349.7,222.4z"/>
	<path fill="#E6A9C5" d="M251.7,379.2c1.4,1.2-0.1,2.9-0.7,4.7c-6.4,14.9-13.1,28.7-20.4,43.1c-4,10.3-0.8,22-2.9,32.8
		c0.7,5.2-2.6,1-4.8-0.2c-0.1-0.4-0.7-0.5-1.1-0.9c-6.1-4.8-8.1-22.4-10.3-26.6c-1.4-5.5-4.1-10.2-3.9-16
		c3.9-11.7,6.5-24.2,10.7-36.1C228.7,378,240.7,380.2,251.7,379.2z"/>
	<path fill="#E6A9C5" d="M218.7,319.1c-1.7,0.6-4.5,0.3-3.5-1.8c2.7-7.4-4.8-18.6-1.5-7.4c4.2,14.7-13.3,9.8-3.9,3.9
		c-2.6-33.4-10.3-24.2,5.1-28.5c2.7-0.2,7.4-2.7,8.6-1.2c3.4,9.5,9.5,14.1,18.1,14.8c1,0.2,1.8,1,1.4,2.4c-3.2,3.4-8.5,1.6-12.2-0.6
		c-1.2-0.4-0.8-6.3-2.5-3.4c0.7,6.7,2.8,13,2.2,19.5c-4.8,5.9-3.8-5.5-4.9-8.1c0.4-2.4-1.9-3.2-1.4-0.1c0.1,3.3,2.1,7.5,0.7,10.6
		c-0.8,1.5-4.6,1.6-4-0.5c1.1-1.5-0.8-15.8-2.6-12.7C217.9,310.1,220.9,315,218.7,319.1z"/>
	<path fill="#E6A9C5" d="M337.3,185.2c-3-1.7-8-2.9-10.5-5c1.9-5.2,5-10.1,6.6-15.4c3.2-4.1,9.1-4.2,13.6-6.8
		c2.4-1.4,6.2-5.2,7.1-0.3c-1.7,4-10,6.5-10.1,9c1,1,2.2-1.7,3.7-0.3c6.7,3.7,9.5,5-0.2,6.4c-9.2,0.7,4.6,3.3,7.9-1.6
		c3-2.1,8.6-10.3,9.1-3.8c-3.8,6.3-14.7,13.4-7.9,10.6c3.7-2.4,5.2-6.6,9.1-9c1.7-1.5,7.1-4.8,6.4-0.5c-3.2,2.7-6.1,6-9.9,7.8
		c-1.5,1.4,0.9,1.3,2.1,1.1c1.5,1.4-1.5,1.9-3.1,1.7c-6,0.4-11.6,1.4-17.6,1.8C339.4,182.3,342.8,188.1,337.3,185.2z"/>
	<path fill="#FAB516" d="M299.2,183.2c0.3-6-1.3-18.3,1.8-17.1c1.9,2,2.9-0.9,4.3,0.2c1.1,2.1,1.1,0.4,2.8,0.3
		c10.8,0.7,18.9-2,20.1,2.5c1.5,0.8-0.5,3.5-2,1.8c-3.7,0.1,4.4,5.6-0.4,4.7c-1.2,1.3-1.2,2.6-2.4,1.7c-3-2.3-4.9-0.2-6.5,1.4
		c-0.5,3.7-2.8,6.9-4.9,10.2c1.2,5.2-2,7.8-3.5,12.2c-0.2,3.3-7.6-7.1-8.8-7.5C299,190.9,300.1,186.7,299.2,183.2z"/>
	<path fill="#231F20" d="M337.3,185.2c1,0.2,3.1,1.8,3.6-0.2c0.7-4.9,3.4-4.3,7.2-4.6c5.3-0.4,9.4-1.4,14.6-1.4
		c1.1,0.4,3.2-1.2,1.3-1.7c-1.3,0.5-3.3-0.2-1.4-1.2c17.2-10.7,8.1-13.9-1.5-2.8c-1.6,2.1-2.9,4.1-5.5,5.2
		c-5.7,1.1,14-11.1,7.6-13.8c-4.7,1.6-7.9,9.2-14.1,9.4c-2,0.6-7.4-0.4-3-1.3c12.1-0.9,7.9-2.9,1.1-6.6c-1.2-0.9-2,1.5-3.2,0.6
		c1-3.6,16.7-9.2,7.2-11.6c1.4-0.8,1.7-0.8-0.3-1c0.5-0.8,0.9-0.6,2.3-0.3c10.6,7.9-15,8.9,1.2,14.6c1.8,0.7,2.1-0.2,4.2-1.9
		c1.3-1,2.4-2.7,4.2-3.2c4.3,0.6,1.1-2-1.6-2.3c-2.9-1.3-4.7-3.8-5.4-6.7c-0.4-13.3-0.4-27-0.3-40.6c2.9-1.7,11.5,0.1,14.6-0.6
		c2.5,0.3,6-1.2,5.7,2.6c0,50.3,1.2,38.6-9.6,47.7c-0.3,1.7-0.3,4.4,2,2.4c2.4-2.7,7.1,0.1,5.4,3.2c-0.4,1.4-3,1.7-2.3,3.3
		c2.4,0,5.5,0.5,5.4,3.5c-0.4,4.7-6.2,3.3-9.7,4.1c-1.5,1.3-0.4,11,0.2,10.8c4.1,2.9,24.7,8.4,9.3,7.9c-44.7,0.4-24.3-0.6-11.8-8.7
		c-0.5-2.3,1.6-10.1-1.1-9.7c-11.7,1.9-20.3,0.8-21.3,4.6c-1.7,5.9,8.8,0,2,9.9c4.1-10.1-1.2-3.2-2.8-8.9
		C340.1,187.1,338.5,186.7,337.3,185.2z M370.3,178c9-0.5,4.4-6-2.2-4.1C364.8,176,365.9,179.5,370.3,178z M374.1,135
		c-0.5-9.1,1.1-20.4-1.1-20.3c-18.1,0.4-15.9-2.2-16,5.7c0.7,19.3-1.8,33.4,2.3,37.2c2.3,2.9,6.8,3.2,10.5,1.8
		C377.4,156.2,373.1,140.1,374.1,135z M376.9,197.1c-10.6-7.1-15.4-4.6-22.9,0.2C361.8,196.9,369.3,197,376.9,197.1z"/>
	<path fill="#231F20" d="M251,379.2c-34.4,1.2-32-2.4-33.9,3.8c-2.7,9.9-5.4,19.1-8.3,28.9c-1.2,1.8,1.1-3.4,0.5-4.7
		c-0.7,1-0.3,2.1-1.1,2.7c14.7-51.2,4.1-18.8,3.8-36.3c1.4,1.3-0.4,5.7,2.7,5.3C226,379.2,239.2,378.4,251,379.2z"/>
	<path fill="#231F20" d="M205.6,287.1c-1,2.6,1.6,5.6,1.8,8.6c1.2,6.2,1.5,11.9,2.2,18.3c-5.3,3.3-2.6,5.8,2.6,5.1
		c-0.8,0.1,0.1,3.1-0.9,2.2c-6-1.4-8.5-3.6-3.5-8.5c-0.4-8.3-1.2-16.4-3.9-24.4c0.5-0.2,1.2,3.2,1.4,1.5
		C205.4,289,203.8,287.3,205.6,287.1z"/>
	<path fill="#231F20" d="M218.7,319.1c2.8-3.5-2.5-14,0.5-13.5c4.5,12.6-1,14.7,3.7,14.6c4.9-0.9,1.2-7.6,1.3-10.9
		c-0.9-2.8,1.5-4.5,1.4,0c0.5,1.7,1.6,10.4,0.6,6.8c-0.2-0.7-0.7-0.4-0.5,0.6c1.1,2.7-2.5,4.7-4.6,3.8
		C220.3,320.1,220,318.5,218.7,319.1z"/>
	<path fill="#FAD10C" d="M312.2,192.6c-1-5.5,1.7-5.4,3.1-9.5c1.3-1.6,0.8-3.7,2.1-5.3c2.5-0.9,2.8-2.9,6.2-0.3
		c1.3,0.8,0.9-1.1,2.5-2c0.9,0.1,1.4,0,0.8,1.3c-2.2,6.7-4.8-1.2-7.8,1.6C316.5,183.1,314.8,188,312.2,192.6z"/>
	<path fill="#231F20" d="M211.6,360c-0.5-12.1-0.4-25,0-37.2C212.1,334.7,212.1,347.9,211.6,360z"/>
	<path fill="#231F20" d="M213.7,317.1c1-3.7-0.3-7.3-1.1-11.1c0.3-1.6,1.6-0.8,1.6,0.8c4.1,10.6-2.9,13,4.2,12.5
		C215,321.3,215.4,318.5,213.7,317.1z M214.8,315.7C214.7,315.9,214.6,316,214.8,315.7C214.8,315.5,214.3,315.3,214.8,315.7z"/>
	<path fill="#FAD10C" d="M299.2,183.2c0.1,1.4,1.4,10.9-0.7,9.6C299.7,190.2,298.5,186.4,299.2,183.2z"/>
	<path fill="#231F20" d="M199.4,195.8c1.8-1.7,1.7-1.5,2.2-1.7c-1.6,1.7,1.5,1.7-0.5,0.2C206.1,195.6,201.7,197.4,199.4,195.8z"/>
	<path fill="#231F20" d="M200.1,288.4c-3.2,3.1-5-3.5-3.7-3C197.8,289.5,196.5,288.4,200.1,288.4z"/>
	<path fill="#231F20" d="M211.9,372.7c-0.4-1.7-0.3-3.5-0.2-5.3C212.5,369.2,212.3,370.9,211.9,372.7z"/>
	<path fill="#231F20" d="M223,282.9c-1.1,1.3-4.8,1.2-6.8,1.9C218.1,283.4,220.6,283.8,223,282.9z"/>
	<path fill="#231F20" d="M212.8,285.5c-2.2,0.5-4.4,1.5-6.7,1.6C208.2,286.1,210.4,285.4,212.8,285.5z"/>
	<path fill="#231F20" d="M339,205.6c-0.6,1.8-1.3,3.4-2.4,4.9C337,208.7,337.9,207,339,205.6z"/>
	<path fill="#231F20" d="M332.2,219.8c0.2,1.3-1,2.6-2,3.7C330.3,222.4,331.3,221,332.2,219.8z"/>
	<path fill="#231F20" d="M334.5,214.9c-0.2,1.6-1.1,2.9-2,4.2C332.7,217.5,333.5,216.2,334.5,214.9z"/>
	<path fill="#231F20" d="M336.4,211c-0.1,1.2-0.8,2.2-1.6,3.1C334.8,212.8,335.8,212,336.4,211z"/>
	<path fill="#231F20" d="M340.7,202.2c-0.2,1-0.7,1.9-1.3,2.7C339.5,203.8,339.9,202.9,340.7,202.2z"/>
	<path fill="#231F20" d="M343.5,196.4c-0.3,0.9-0.5,1.7-1.2,2.4C342.3,197.7,342.7,196.9,343.5,196.4z"/>
	<path fill="#231F20" d="M216,284.8c-1,0.5-2.1,0.3-3.1,0.6C213.8,284.4,215,285,216,284.8z"/>
	<path fill="#231F20" d="M195.1,201.6c-0.1-0.7,0.1-1.4,0.5-2C196.1,200.4,195.6,201,195.1,201.6z"/>
	<path fill="#231F20" d="M330.2,223.7c0,0.7-0.4,1.3-0.8,1.9C329.1,224.8,329.5,224.2,330.2,223.7z"/>
	<path fill="#231F20" d="M193.8,207.4c-0.1-0.4,0-0.7,0.2-1C194.4,206.9,194.3,207.2,193.8,207.4z"/>
	<path fill="#231F20" d="M342.2,199c-0.1,0.5-0.2,0.9-0.6,1.3C341.5,199.7,341.6,199.2,342.2,199z"/>
	<path fill="#231F20" d="M212.8,318.7c0.1-0.4,0.2-0.8,0.6-1C213.5,318.2,213.4,318.6,212.8,318.7z"/>
	<path fill="#231F20" d="M195.6,282.5c-0.2-0.2-0.3-0.4-0.2-0.7C195.8,282,196,282.2,195.6,282.5z"/>
	<path fill="#231F20" d="M203.1,287.9c-0.2,0-0.5,0-0.7,0C202.6,287.4,202.8,287.4,203.1,287.9z"/>
	<path fill="#231F20" d="M194.8,202.9c-0.1-0.3-0.1-0.5,0.1-0.7C195.4,202.5,195.2,202.7,194.8,202.9z"/>
	<path fill="#231F20" d="M194.5,204.5c-0.1-0.3-0.1-0.5,0.2-0.7C195,204.2,194.8,204.4,194.5,204.5z"/>
	<path fill="#231F20" d="M194.1,205.8c-0.1-0.3-0.1-0.5,0.2-0.7C194.7,205.5,194.5,205.7,194.1,205.8z"/>
	<path fill="#231F20" d="M192.9,212c-0.1-0.3-0.1-0.7,0.2-0.9C193.3,211.5,193.3,211.8,192.9,212z"/>
	<path fill="#231F20" d="M192.2,215c-0.1-0.3,0-0.5,0.2-0.7C192.7,214.6,192.5,214.8,192.2,215z"/>
	<path fill="#231F20" d="M191.8,216.3c-0.1-0.3,0-0.5,0.2-0.7C192.4,216,192.2,216.2,191.8,216.3z"/>
	<path fill="#231F20" d="M191.2,219.5c-0.1-0.3-0.1-0.5,0.2-0.7C191.8,219.2,191.6,219.4,191.2,219.5z"/>
	<path fill="#231F20" d="M328.8,226.7c0,0.5-0.3,0.7-0.6,1C328.1,227.2,328.3,226.9,328.8,226.7z"/>
	<path fill="#231F20" d="M194.3,277c-0.2-0.2-0.3-0.4-0.2-0.7C194.5,276.4,194.7,276.6,194.3,277z"/>
	<path fill="#231F20" d="M191.5,218.2c-0.2-0.3-0.1-0.7,0.1-1C191.7,217.5,191.7,217.9,191.5,218.2z"/>
	<path fill="#231F20" d="M195.9,284.5c-0.2-0.3-0.3-0.6-0.2-1C196,283.8,196,284.2,195.9,284.5z"/>
	<path fill="#231F20" d="M193.9,275.7c-0.2-0.2-0.3-0.4-0.2-0.7C194,275.2,194,275.5,193.9,275.7z"/>
	<path fill="#231F20" d="M201.7,288.1c-0.2,0.2-0.4,0.3-0.6,0.2C201.3,288,201.5,288,201.7,288.1z"/>
	<path fill="#231F20" d="M350.2,155.8c-0.1,0.2-0.2,0.3-0.4,0.3C349.8,155.8,350,155.7,350.2,155.8z"/>
	<path fill="#231F20" d="M350.9,155.5c-0.1,0.2-0.2,0.3-0.5,0.2C350.5,155.4,350.7,155.4,350.9,155.5z"/>
	<path fill="#231F20" d="M190.5,222.4c-0.1-0.3,0-0.5,0.1-0.7C190.7,222,190.7,222.2,190.5,222.4z"/>
	<path fill="#231F20" d="M341.5,200.6c-0.1,0.1-0.1,0.2-0.2,0.3C341.4,200.8,341.4,200.7,341.5,200.6z"/>
	<path fill="#231F20" d="M198.5,193.5c-0.2,0.1-0.3,0.1-0.4-0.1C198.2,193.4,198.4,193.5,198.5,193.5z"/>
	<path fill="#231F20" d="M192.6,269.9C192.6,269.8,192.6,269.7,192.6,269.9C192.5,269.9,192.3,269.2,192.6,269.9z"/>
	<path fill="#231F20" d="M192.9,271.2c-0.2-0.1-0.2-0.3-0.1-0.4C192.9,270.9,192.9,271,192.9,271.2z"/>
	<path fill="#231F20" d="M193.5,273.8C193.6,273.7,193.6,273.7,193.5,273.8C193.4,273.9,193.3,273.1,193.5,273.8z"/>
	<path fill="#231F20" d="M339.2,205.2c-0.1,0.1-0.1,0.2-0.2,0.3C339.1,205.4,339.2,205.3,339.2,205.2z"/>
	<path fill="#231F20" d="M193.5,209.7c-0.1-0.2-0.1-0.3,0.1-0.4C193.5,209.4,193.5,209.6,193.5,209.7z"/>
	<path fill="#BA115F" d="M105.4,437.1c3.5-5.3,5.1-14.5,7.2-13.9c7.8,1.3,14.9,2.7,22.8,3.9c-2.5,4.7-5.4,1.3-8.2,4.4
		C117.4,454.7,115.5,446.4,105.4,437.1z"/>
	<path fill="#377BBF" d="M218.1,92.1c-0.8-0.1,0.1-1.7,1.1-1C219.2,91.6,219.2,92,218.1,92.1z"/>
	<path fill="#231F20" d="M231.1,87.9c0.5,0.1,1.1,0.1,1.6,0.2C232.3,88.8,231.9,88.8,231.1,87.9z"/>
	<path fill="#231F20" d="M135.8,203.6c0.4-1,6.5-1.4,2.4-1.8c1.6-0.8,6.4-1.6,6.6-2.9c-0.8-7.4-3.1-14.4-4.4-21.5
		c2.4,6,2.9,12.6,4.6,19.2c1.2-2.2,3.2-2.1,5-2.2C138.8,197.1,157.2,199.9,135.8,203.6z"/>
	<path fill="#231F20" d="M167.5,190.3c-2.9-1.5-5.9,1.3-9,0.9c5.9-4.7,15.5-0.6,22.6-1.4C184,192.5,168.8,189.1,167.5,190.3z"/>
	<path fill="#231F20" d="M160.3,191.3c0.8-0.3,1.9-1.4,3.2-0.9C162.8,190.7,161.5,191.4,160.3,191.3z"/>
	<path fill="#231F20" d="M151.2,193.9c0.7-1.1,1.8-0.9,2.9-0.9C153.2,193.3,152.2,193.6,151.2,193.9z"/>
	<path fill="#231F20" d="M150.2,194.3c0.2-0.3,0.4-0.3,0.7-0.2C150.8,194.4,150.5,194.4,150.2,194.3z"/>
	<path fill="#231F20" d="M187.4,158.8c2.6,2.7-4.2,0.5-5.7,0.7c-3.2-0.7-6.4,0.7-9.1-1C173.8,156,186.4,158.3,187.4,158.8z"/>
	<path fill="#231F20" d="M187.3,191c-3.7,0.1,0.1-1.7,2.6-2.4c0.7,0.6,8.6,3.8,6.1,4C193.5,191.8,189.5,188.7,187.3,191z"/>
	<path fill="#231F20" d="M185.9,188.9c-8.7,3.9,6-7.1,4.5-2.4C189,187.5,187.6,187.6,185.9,188.9z"/>
	<path fill="#231F20" d="M173.7,195.3c1.4-1,4.8-1.9,2.9,0.7C175.8,196.8,171.7,197.2,173.7,195.3z"/>
	<path fill="#231F20" d="M191.8,464.2c0.4-10.5-0.3-2.9,1.9-2.6C193.5,462.3,192.3,463.4,191.8,464.2z"/>
	<path fill="#231F20" d="M207.5,416.5c-0.3,2.5,1.1,4.7,1.4,7.1C208.1,421.3,206.5,419.2,207.5,416.5z"/>
	<path fill="#231F20" d="M208.6,412.6c0.1,1.3-0.3,2.4-1,3.5c-0.1-0.7-1.8-2.5-0.1-2.9C208.1,414.6,208.2,412.9,208.6,412.6z"/>
	<path fill="#231F20" d="M194.9,461.6c-0.1-0.2-1.2,0.5-1.2-0.3C193.9,460.8,194.7,460.7,194.9,461.6z"/>
	<path fill="#231F20" d="M206.3,416.8c-0.1-0.6,0-1.1,0.4-1.6C206.7,415.8,206.9,416.4,206.3,416.8z"/>
	<path fill="#231F20" d="M223,459.6c0.4,0.1,0.7,0.2,0.8,0.6C223.4,460.3,223,460.2,223,459.6z"/>
	<path fill="#231F20" d="M222.3,459.1c0.3,0.1,0.5,0.2,0.6,0.5C222.6,459.6,222.3,459.5,222.3,459.1z"/>
	<path fill="#231F20" d="M204.8,420.4c0-0.2,0-0.3,0.2-0.3C205,420.3,205,420.4,204.8,420.4z"/>
	<path fill="#231F20" d="M221.7,458.5C221.7,458.6,221.7,458.6,221.7,458.5C221.6,458.5,222,458.6,221.7,458.5z"/>
	<path fill="#231F20" d="M222,458.8c0.1,0.1,0.1,0.1,0.2,0.2C222.1,459,222,458.9,222,458.8z"/>
	<path fill="#231F20" d="M117.4,173.6c9.2-1.4,6.3-7.6,9.8-13.1c0.3,1.3,1.2,0.8,0.3,2.9c-6.5,14.5,4.4,4.2,11.3,4.6
		c1.8,3.2,2.3,2.4,5.6,1.7c-7.3,2.9-4.5,0.1-4.1,7c-1-2-1.1-7.4-3.6-6.9c-5.1,0.9-33,9.8-24.7,5.5c0-0.2-1.8-3.5,0.1-2.1
		c0.1-0.1-0.8-3.2,0.1-1.9C112.9,175.4,114.4,174.2,117.4,173.6z"/>
	<path fill="#231F20" d="M128.1,161.4c-3.3-0.9,4.4-6.2-1.8-12.3c-0.9-0.4-0.7-3.6,0.6-2.2c0.3,2.9,3,4.5,3.6,7.5
		c-0.1,2.3-2,4.1-2.3,6.7C128.2,161.2,128.3,161.1,128.1,161.4z"/>
	<path fill="#231F20" d="M127.2,147.9c-1.1-3.7-1.2,0.6-2-0.6c4.9-6.2,0.9-2.1,1.1-7.9c0.4-0.4,0.8-0.1,1.1,0.6
		C132.4,147.7,128,143.5,127.2,147.9z"/>
	<path fill="#231F20" d="M128.3,161.1C128.3,161.1,128.2,161.1,128.3,161.1L128.3,161.1z"/>
	<path fill="#231F20" d="M126.2,149C126.2,149,126.2,149,126.2,149C126.3,149.1,126.1,149.1,126.2,149z"/>
	<path fill="#231F20" d="M157,467.5c0.6-0.3,1.3-0.3,1.9,0C158.3,468,157.6,468,157,467.5z"/>
	<path fill="#231F20" d="M142,467.5c0.4-0.3,0.9-0.3,1.3,0C142.8,467.9,142.4,468,142,467.5z"/>
	<path fill="#231F20" d="M193.1,464.2c0.2,0.3,0.1,0.5-0.2,0.7C192.5,464.5,192.7,464.3,193.1,464.2z"/>
	<path fill="#231F20" d="M191.5,466.1c-0.1-0.3,0-0.5,0.1-0.7C191.7,465.7,191.7,466,191.5,466.1z"/>
	<path fill="#F6D563" d="M68.8,146.1c-5,7-12.3,21.4-13.9,18.9c-34.2-0.3-37.6,2.1-36.2-2.7C19.5,21,14.3,52.9,26.9,48.8
		c104.9,0.4,94.1-1.5,95,2.1c-0.6,24.9,2.7,22.9-7.8,31.9c-0.4,0.5-1.6,0-1.2-1c0.6-3.8,8.2-14.8,2.9-14.2
		c-9.3,15.9-3.5,18.8-7.3,16.9c-2.1-1.6-12.3-4.9-9.4,0c4.6,1.1,8.9,1.8,11.3,6.3c0.8,1.3,1.5,2.9,0.1,3.8c-7.8,4.3-8.6,11.9-5.5,19
		c0.7,3.2,4.8,15.9-0.2,13.2c-3-5.3-6.7-10.7-9-16.1c2.6-12.5,0.3-25.8,1.1-38.8c0.2-3.7-0.4-6,0-9.6c-0.4-0.5-0.2,0-1.3-0.9
		c-9,1.1-19,0.2-28.4,0.5c-3.9,0.5-11.9-1.3-12.5,1.1c1,36.7,0.9,30.1-2.8,30.4c-20.6-1.7-31.6,23.8-17.5,37.3
		c16.2,16.3,41,1,37.1-19.3c-1.2-3.4,1.9-1.7,4.3-2.1c2.1,0.4,7.2-1.2,5.7,1.2c-4.3,8.4-9.5,15.5-13.8,23.7
		C61.1,146.8,57.3,146.5,68.8,146.1z"/>
	<path fill="#DCA7CC" d="M106.8,120.8c-5.8-15.6,4-22.1,11.7-20.4c11.7,4.2,10,16.8,2.6,23.7c-0.3-0.5-0.9-0.9-1.5-0.5
		C113.2,128,108.7,120.2,106.8,120.8z M115.5,117.6c-0.2,3.1,3.4,3.4,4.4,0.8C120.3,114.6,115.9,114.3,115.5,117.6z"/>
	<path fill="#FAD10C" d="M121.5,80.3c1.8,4.3-4.9,4.6-6.8,9C114.3,84.7,118.5,83,121.5,80.3z"/>
	<path fill="#FAD10C" d="M121.5,86.8c1.5,2.4-1.5,2.2-3.5,3.6C118.7,88.5,119.9,87.5,121.5,86.8z"/>
	<path fill="#FAD10C" d="M122,91.8c-0.7,0.4,0.5,3.1-0.7,2.8C118.1,94.1,119.2,91.9,122,91.8z"/>
	<path fill="#377BBF" d="M110.3,176.7c20.3-4.4,27.9-9.1,28.4-5.5c8,33.6,8.8,27.7-2.3,30.9c-36.8,9.8-75.7,21.2-78.8,19.5
		c-12.9-1.3-23-9.2-20.7-21.8c3.9-11.1,12.2-19.8,18.3-29.9c15.4-22.3,18.3-34.7,35.1-36.2c12.8-1.2,11.2-3,11.6,7.2
		c0.7,1.7,1.4-0.5,2.5-1.1c1,0,3.3-1.5,2.6,0.4c-4,5.1,1,3.2,0.9,6.4c-0.8,2.5-2.9,4.2-3.2,6.6c1.2,5.2,3.8,9.9,5.2,15.4
		c4.7,9.6-1.6,6.5-7.6,9.2c-9.7,1.8-16.2,5.6-15.3,2.5c3.5-5.5,17.9-24.9,15.1-24.8c-2.8,4.2-5.9,8.9-8.8,13.2
		c-13.1,20.3-6,10.9-18.5,17c1,1.2,2.7,0,4.7-0.4C90.1,182,99.8,179.9,110.3,176.7z"/>
	<path fill="#377BBF" d="M117.4,173.6c-1.2,0.2-3.8,1.5-4.6-0.1c-1.1-3.9-2.3-7.1-3.7-11.1c-3.6-9.7-4.3-8.5,0.7-15.9
		c0.5-1.2-0.9-1.5-2.3-3.1c-1.3-1.7,2.1-2.9,1.6-5.1c-2.1,0.2-1.5,0.1-0.2-1.5C113,131.2,114.9,174.4,117.4,173.6z"/>
	<path fill="#231F20" d="M106.8,120.8c5.1,2.4,7.8,6.3,13.5,2.6c1.9,2.1,1.2,7.6-2.9,4.9C113.2,127.8,107.3,125.8,106.8,120.8z"/>
	<path fill="#231F20" d="M107.1,122.5c2.2,3.2,5.1,5.3,9,5.4c-9,2.9-3.8,0.9-9.9-0.6C107.4,125.9,107.4,124.3,107.1,122.5z"/>
	<path fill="#377BBF" d="M106.9,139.1c-0.2-0.3,1.3-1.3,0.6-0.1C107.4,138.8,107.2,139.3,106.9,139.1z"/>
	<path fill="#231F20" d="M118,128.4C118,128.4,118.2,128.4,118,128.4L118,128.4z"/>
	<path fill="#231F20" d="M67.6,221.5c-0.4,0.5-2.2,1.2-2.6,0.1C65.6,221.2,66.3,221.6,67.6,221.5z"/>
	<path fill="#231F20" d="M63.2,222.4c-0.2,0.2-0.4,0.3-0.7,0.1C62.7,222.1,62.9,222,63.2,222.4z"/>
	<path fill="#231F20" d="M137.1,202c0.3,0,0.5,0,0.8,0C137.7,202.3,137.4,202.2,137.1,202z"/>
	<path fill="#231F20" d="M69.7,221.1c-0.2,0-0.4,0.1-0.6,0.1C69.3,220.8,69.5,220.7,69.7,221.1z"/>
	<path fill="#231F20" d="M69.1,221.2c-0.1,0.1-0.1,0.2-0.2,0.1C68.9,221.1,69,221.1,69.1,221.2z"/>
	<path fill="#231F20" d="M136.2,202.2C136.3,202.2,136.3,202.2,136.2,202.2C136.1,202.1,136.4,201.9,136.2,202.2z"/>
	<path fill="#FAB516" d="M380.4,57.1c1.3-33.3,35.2-30.5,35.3-0.1c-0.4,22.8-19.2,27.6-25.4,20.5c-3.9,0.4-3-1.8-4.7-4.2
		C382,68.4,380.4,63.2,380.4,57.1z"/>
	<path fill="#FAB516" d="M319.4,102.9c-0.5-27.6,25.2-18.5,26.3-8.4c-1,1.9,2.5,1.4,2.3,3c-0.8,1.7,1.1,1.2,1.4,2.5
		c0.9,5,2.3,9.3,1.6,14.8c-0.3,3.6-0.9,10.5-3.2,10.2c-1.9,1-2.9,4.6-5.9,4.6C327.1,132.8,318.3,109.4,319.4,102.9z"/>
	<path fill="#FAB516" d="M371.2,99.9c-1.4-0.8-1.5,1.2-2.9,0.9c-4.1-1.8-9.3-3.6-10.4-7.4c-3.9-2.1,0.8-1.1-0.9-2.6
		c-3.3,0-4.1-7.7-6-9.6c0.3-8.5-2.6-19,7.1-23.3c9.8-2.9,11.6,4.2,16.6,8.1c7.8,20.2,1.9,12.2,5.5,19.4c-2.8,2-1,2.6-2.7,4.7
		c-0.1,0.6,1.3,0.8,1,1.6C376.6,94.4,375.5,99.9,371.2,99.9z"/>
	<path fill="#FAB516" d="M452,115.4c-3.1,27-33.5,35.3-32,13c0-4.6,2-9.6,4.8-13.3c-0.3-1.9-0.5-1.5,1.5-2.1
		c0.6-4.6,6.1-6.3,9.7-9.8c5.9-2.4,10.7-0.9,13.9,4.3C452.9,108.2,451.4,113.1,452,115.4z"/>
	<path fill="#FAB516" d="M449.6,77.1c1,6.3-3.4,11.8-7.6,16.1c-17.1,11.1-23.2-8.8-18.4-12.9c-1-2.7-1.5-1.5,0.1-4.7
		C434.5,57.4,451.5,64.5,449.6,77.1z"/>
	<path fill="#FAB516" d="M403.4,122.2c-6.5,0-5.4,1.8-8-4c-5.3-8.8-0.3-18.4,5-26c1.5-2.3,5.1-3.1,7.6-4.5c1.2,0,1.6,0.8,3.2,0.3
		c2.8,0.4,3.4,2.5,6.2,3.2c0.8,2,0.3,4.8,1.2,7.2c-1.6,4.7,0.3,8.9-2.1,9.7c-0.4,0.3-0.3,0.6,0,1.1c1.5,1.2-2.9,1.4-2.9,2.8
		c1.7,2.2,3,1.6-1.1,3.4c-1.4,0.6-0.6,2.6-2.1,3.3C407.8,119.8,406.5,122.7,403.4,122.2z"/>
	<path fill="#FAB516" d="M387,140.3c-2.3,1.8-4.3,2.9-7.6,2.4c-1,0.1-1.5-1-2.6-0.9c-0.6,0-0.9,1.2-0.8-0.3
		c-0.8-23.1,1.6-28.8-2.2-28.5c-4.1-0.5-18.2,2-12.2-3.3c-2.9-4.3,9-6.1,11.1-6.1c3.8,4,4.2,3.1,8,5
		C389.2,116.5,393.6,132.3,387,140.3z"/>
	<path fill="#FAB516" d="M330.2,169.3c-0.5-0.1-2.2-1.1-0.6-1.7C330.5,167.5,330.5,168.1,330.2,169.3z"/>
	<path fill="#FAB516" d="M415.4,87.8c0.2,0.1,0.2,1.3-0.5,0.4C415,88.1,415,88,415.4,87.8z"/>
	<path fill="#FAB516" d="M358.2,113c-0.6,0-1.3,0-1.9,0.1C356.9,112.5,357.6,112.6,358.2,113z"/>
	<path fill="#FAB516" d="M328.1,173.1c0-0.1,0.4-1.6,0.7-0.7C328.7,172.4,328.9,172.9,328.1,173.1z"/>
	<path fill="#FAB516" d="M328.2,173.2c-0.1,0-0.1,0.1-0.2,0.1C328.1,173.3,328,173,328.2,173.2z"/>
	<path fill="#231F20" d="M167.5,190.3c3-0.4,6.9-0.6,9.8,0.6C174.3,191,170.6,190.9,167.5,190.3z"/>
	<path fill="#231F20" d="M208.5,412.5c-0.2,1.6-1.5,1.6-0.9-0.6c0.4-1.3,1.1-2.7,1.8-4.7C209.9,409.3,208.5,410.8,208.5,412.5z"/>
	<path fill="#231F20" d="M164.1,190.2c0.8-0.7,1.6-0.6,2.4,0C165.7,190.2,164.9,190.2,164.1,190.2z"/>
	<path fill="#231F20" d="M208.1,410.4c0.1,0.2,0,0.4-0.2,0.5C207.8,410.7,207.9,410.5,208.1,410.4z"/>
	<path fill="#231F20" d="M207.7,411.4c0.1,0.2,0.1,0.4-0.1,0.5C207.6,411.7,207.7,411.6,207.7,411.4z"/>
	<path fill="#231F20" d="M207.6,411.9c0,0.1-0.1,0.2-0.1,0.4C207.4,412.1,207.4,412,207.6,411.9z"/>
	<path fill="#FAD10C" d="M476.1,211c-0.5-11.2-0.5-23.3,0-34.6C476.3,187.8,476.3,199.5,476.1,211z"/>
	<path fill="#FAD10C" d="M476.1,218.5c-0.4-2.2-0.4-4.3,0-6.5C476.3,214.2,476.5,216.3,476.1,218.5z"/>
	<path fill="#FAD10C" d="M349.7,222.4c1-0.8,2.6-0.8,3.6,0C352.1,222.5,350.9,222.6,349.7,222.4z"/>
	<path fill="#FAD10C" d="M474.9,222.4c0.7-0.9,0.4-2.1,1.1-2.9C476.7,221.6,476.6,221.9,474.9,222.4z"/>
	<path fill="#FAD10C" d="M469.9,222.3c0.8-0.9,1.5-0.9,2.3,0C471.5,222.6,470.7,222.6,469.9,222.3z"/>
	<path fill="#FAD10C" d="M342.5,222.4c0.8-0.9,1.5-0.9,2.3,0C344.1,222.6,343.3,222.6,342.5,222.4z"/>
	<path fill="#FAD10C" d="M299.2,169.5c0.3,1.5,0.4,3,0,4.5C299,172.6,299,171,299.2,169.5z"/>
	<path fill="#FAD10C" d="M331.5,222.3c-0.1-1.5,1.2-1.3,1.9,0C333,222.5,332.4,222.5,331.5,222.3z"/>
	<path fill="#E6A9C5" d="M366.4,176.5c-0.1-3.6,6.1-1.8,8.6-1.8c0.3,2.8-2.5,2.3-4.6,3.3C369.1,177.9,366.6,178.7,366.4,176.5z"/>
	<path fill="#FAD10C" d="M352,161.8c-0.4,1.2,2.1,7.2-0.2,5.4C346.4,164.3,348.8,164.4,352,161.8z"/>
	<path fill="#377BBF" d="M374.9,174.7c-2.2-0.1-5.1-0.6-7.5-0.3C368.3,173.4,374.8,173.2,374.9,174.7z"/>
	<path fill="#FAD10C" d="M375.9,142.4c0.5-0.4,1.2-0.8,2.1-0.1C386.3,143.5,378.5,143.5,375.9,142.4z"/>
	<path fill="#377BBF" d="M370.4,178c1.4-0.8,5.1-0.6,4.6-3.3C376.1,177.7,372.8,178,370.4,178z"/>
	<path fill="#377BBF" d="M366.4,176.5c0.4,2.1,2,1.3,3.9,1.5C369.3,178.1,365.5,179.2,366.4,176.5z"/>
	<path fill="#377BBF" d="M367.4,174.5c0,0.5-0.3,0.7-0.8,0.9C366.8,174.9,367,174.6,367.4,174.5z"/>
	<path fill="#231F20" d="M188.7,190.4c0-0.5,0.2-0.7,0.7-0.3C189.2,190.3,189,190.5,188.7,190.4z"/>
	<path fill="#231F20" d="M187.3,191c0.1-0.5,0.4-0.6,0.9-0.4C188,190.9,187.7,191,187.3,191z"/>
	<path fill="#231F20" d="M193.7,191.6c0.5-0.2,0.8-0.1,0.9,0.4C194.2,192.1,193.9,191.9,193.7,191.6z"/>
	<path fill="#231F20" d="M194.6,192c0.4-0.1,0.7-0.1,0.9,0.3C195.2,192.4,194.8,192.4,194.6,192z"/>
	<path fill="#231F20" d="M214.8,315.7C214.7,315.5,214.7,315.4,214.8,315.7C214.8,315.9,214.3,316.1,214.8,315.7z"/>
	<path fill="#BA115F" d="M181.6,137.1c0.3-4.6-1-11.4,1.2-11.3c5.1,0,10.2,0.2,14.6-0.3c1.4,6.8,0.4,14,0.4,21.8
		c-0.8,6.9-9,8.1-13.5,4.5C180.2,147.9,182,141,181.6,137.1z"/>
	<path fill="#231F20" d="M188,189.4c0.1,0,0.3-0.1,0.4-0.1C188.2,189.3,188.1,189.3,188,189.4z"/>
	<path fill="#231F20" d="M188.7,189.1c0.1-0.1,0.2-0.2,0.3-0.3C188.9,188.9,188.8,189,188.7,189.1z"/>
	<path fill="#231F20" d="M188.3,187.2c0,0.2-0.2,0.2-0.3,0.2C188.1,187.3,188.2,187.2,188.3,187.2z"/>
	<path fill="#231F20" d="M107.9,159.3c1,2.5,5.8,15.9,3.6,13.4C109.3,168.7,102.6,146.1,107.9,159.3z"/>
	<path fill="#231F20" d="M98.8,178.5c4.2-0.9,9.1-2,13.1-3.7C114.6,175.9,96.9,181.4,98.8,178.5z"/>
	<path fill="#231F20" d="M95,109.4c-3.1-3.5-5.3-11.2-7.2-10.2c-3.5,4.5-3.9,11.1-9,10c-2.8-0.5-6.2,1.1-7.8-0.7
		c-2.2-6.3-6.7-11.5-13.3-13.6c-4.7-1-1.3-13.8-2.2-16.5c0.7-4.8-1.5-17.2,1.3-16.6c51.4,2.1,37.9-7.3,39.7,17
		C95.8,98.5,98.1,109.3,95,109.4z"/>
	<path fill="#377BBF" d="M55.4,93.6c29.2,11,15.9,49-10.6,43.1C16.1,127.5,27.1,88.9,55.4,93.6z"/>
	<path fill="#377BBF" d="M159.6,26.5c15.3,0.5,31.9-0.9,46.7,0.4c1,11.5-0.1,22.5,0.3,34.5c0,2.5-0.2,2.5-3,2.5
		c-25.2-4.5-4.9-27.2-43.4-32.6C158.3,31.2,158.8,27.8,159.6,26.5z"/>
	<path fill="#231F20" d="M98.8,178.5c-0.6,1.2,1.2,0.7,2.5,0.8c-7.2,1.2-29.2,9.3-26.2,5.6c4-1.4,9.6-1.2,10.9-5.2
		c0.8,0.4,0.9,2.2,2,1.9C91.6,179.9,95.2,179.9,98.8,178.5z"/>
	<path fill="#231F20" d="M87,180.3c-1.9,0,0-1.8,0.7-3c4.7-6.4,14.8-24.5,15-21.1C98.3,164.2,92.2,172.5,87,180.3z"/>
	<path fill="#231F20" d="M106.4,155c-0.6-0.2-0.4,1.7-1.2,0.3c-2.4-3.6,2.4-6,2.6-9.4c-3.7-3.7-2.7-3.3,0.3-7.5
		c4.2-0.8-4.2,3.7,1.7,7.2C110.1,148.2,104.6,151.5,106.4,155z"/>
	<path fill="#231F20" d="M105.8,156.6c0.4,0.4,0.2,0.9,0.2,1.4C105.7,157.6,105.7,157.1,105.8,156.6z"/>
	<path fill="#231F20" d="M88,179.2c0-0.3-0.1-0.6,0.3-0.7C88.4,178.7,88.3,179,88,179.2z"/>
	<path fill="#231F20" d="M107.5,158.6c-0.8-0.5-0.5-1.3-0.5-2C107.5,157.2,107.3,157.9,107.5,158.6z"/>
	<path fill="#231F20" d="M111.8,170.3c-0.3-0.1-0.2-0.4-0.2-0.6C111.8,169.9,111.9,170.1,111.8,170.3z"/>
	<path fill="#231F20" d="M107,156.3c-0.4-0.2-0.3-0.5-0.2-0.7C107,155.8,107,156,107,156.3z"/>
	<path fill="#231F20" d="M107.9,159.3c-0.2,0-0.3-0.1-0.2-0.3C108,158.9,108,159.1,107.9,159.3z"/>
	<path fill="#231F20" d="M106.6,155.4c-0.2,0-0.2-0.1-0.1-0.2C106.5,155.2,106.6,155.3,106.6,155.4z"/>
	<g>
		<path fill="#231F20" d="M459.3,405c-0.1,0.1-0.1,0.3-0.2,0.4c0-1.2,0-2.5,0-3.7c0.1,0.1,0.1,0.3,0.1,0.4c0.2-1.3,0.2-2.6,0-4
			c-0.1,0.1-0.1,0.2-0.1,0.3c0-1.3,0-2.6-0.1-3.9c0.1,0.1,0.1,0.3,0.2,0.4c0.1-4.5,0.5-9.2,0-13.4c-0.1,0.3-0.2,0.5-0.2,0.8
			c0.1-0.7,0.2-1.4,0.3-2.1c0,0,0,0,0,0c0-0.1,0-0.3-0.1-0.3c0.1,0,0-0.2,0.1-0.3c-0.4,0-0.3,0-0.4,0c0,0,0,0,0,0
			c1,0,0.5-1.3,0.2-1.1c-0.2-3-4.1-8.2-4.8-5.4c1.6,1.3,3.3,3,3.5,4.8l0,0c0.5,2.6-0.1,5.3,0.4,7.9c0.4-0.6,0.5-1.4,0.4-2.1
			c0.1,0.8,0,1.6-0.4,2.1c0,0.6,0,1.1,0.1,1.6c-0.5,0-0.6,8.3-0.1,10.8c0-0.1,0.1-0.2,0.1-0.2c0.1,1.5,0.2,2.9,0.3,4.4
			c-0.2-1.3-0.4-2.7-0.4-3.8c-0.8,2.8,0.2,5.8-0.3,8.4c0.2-0.2,0.3-0.4,0.4-0.6c-0.7,2.1-2.1,3.9-3.8,5c-0.1,0-0.2,0.1-0.3,0.2
			c-0.3,0.2-0.7,0.3-1.1,0.5c0,0,0,0,0,0c-0.3-0.1-0.5,0-0.7,0.2c0,0,0,0,0,0c-0.3,0.1-0.6,0.1-1,0.1c0.1,0.3,0.3,0.5,0.4,0.7
			c-21.5-2.3-45.7-0.1-68.7-0.8c-2-0.1-3.9,0.1-5.8,0.4c0.1-0.1,0.1-0.2,0.1-0.3c-2.6-0.2-5.2,0.2-7.5,0c0,0,0,0,0,0
			c-0.3-0.2-0.6-0.2-0.9-0.1c-0.3-0.1-0.6-0.1-0.9-0.2c-0.1-0.1-0.2-0.1-0.4-0.1c-0.8-0.3-1.6-0.8-2.3-1.6c-2.5,1.5,2,2.7,6.2,3.1
			c-2,0-4-0.3-6.1-1.3c0.8,3.6,31.1,1.4,40.4,2c15.2-0.6,31.3,1.2,46.2-0.6c1.3,0.4,3.3-1.6,4.8-2.5c1.9,0.2,0.6,18.5,0.7,33.1
			c0.6,3.4-8.2,1.2-69.5,1.6c-8.1-0.7-17.4,1.6-24.8-0.9c-0.1,0.2-0.1,0.3-0.1,0.4c0-0.1,0-0.3,0.1-0.4c-0.2-3.5-0.3-6.9-0.3-10.4
			c0.1,3.3,0.2,6.6,0.3,9.7c0.5-10.3,0.4-21.5,0-31.7c-0.1,1.9-0.2,3.8-0.2,5.8c0-1.6,0-3.2-0.1-4.9c0.3-1.4,0.2-1.9,0.2-2.2
			c0.2,0.1,0.7,0,1.4,0c0.8-1.1,0.7-1-0.1-2c-0.8-1.2-0.3-0.1-0.4,0.4c-0.1,0.1-0.1,0.1-0.1,0.2c0-0.1,0.1-0.1,0.1-0.2
			c-0.3-1.5-0.6-3-0.8-4.6c1.1-6.6-1-20,0.6-27.9c-0.3,0.2-0.6,0.7-0.7,1.6c0-0.3,0-0.7,0-1c3.9-4.6,3.4-5.5,5.2-0.9
			c-0.1,0.1,0,0.2,0.1,0.3c0,0.1,0.1,0.2,0.1,0.3c0,0.1,0,0.2,0.1,0.3c0.2,0.4,0.4,0.9,0.6,1.4c-0.1-0.1,0,0.2,0.1,0.2
			c0.3,0.6,0.6,1.3,0.9,2c0,0.3,0.1,0.5,0.3,0.7c0.5,1.2,1.2,2.5,1.9,3.9c0,0,0,0,0,0.1c0.9,1.8,2,3.9,3.4,6.2
			c-0.1,0.3,0.9,0.5,2.8,0.6c0,0-0.1,0.1-0.1,0.2c0.3,0.2,0.5,0.1,0.6-0.1c0,0,0,0,0,0c2.2,0.1,5.3,0.2,9.1,0.1
			c0.8,0.2,1.7,0.2,2.5,0c1.4,0,2.8,0,4.3,0c0.5,0.2,1,0.2,1.5,0.1c0,0-0.1,0-0.1-0.1c0.7,0,1.4,0,2.2,0c0,0-0.1,0.1-0.1,0.1
			c0.6,0.1,1.2,0.1,1.7-0.1c3.9,0,7.9-0.1,12-0.1c-0.2,0-0.4,0.1-0.6,0.1c1.2,0.3,2.4,0.4,3.6,0c-0.2-0.1-0.4-0.1-0.6-0.2
			c1,0,1.9,0,2.9,0c-0.2,0-0.4,0.1-0.6,0.2c1.1,0.4,2.2,0.3,3.2,0c-0.2-0.1-0.4-0.1-0.5-0.1c3.1,0,6,0.1,8.8,0.1
			c3.4,0,6.9,0,10.2-0.1c-0.1,0-0.3,0.1-0.4,0.1c0.7,0.4,1.5,0.3,2.2,0.1c-0.2-0.1-0.3-0.2-0.5-0.3c1.4,0.7,3.1,0.6,3.8-0.6
			c0,0,0,0,0,0c0,0,0,0,0,0c0.4-0.1,0.6-0.4,0.5-0.8c-0.1,0-0.1,0-0.1,0c0.1-0.2,0.2-0.4,0.3-0.6c0,0,0,0,0,0.1
			c0.3-0.2,0.4-0.5,0.4-0.8c0.1-0.1,0.1-0.2,0.2-0.3c0,0,0,0.1,0,0.1c0.6-0.2,0.7-0.8,0.8-1.4c0,0-0.1,0-0.1,0.1
			c1.8-3.2,3.6-6.4,5-10.5c0.3,0.2,1.6-3.1,1.8-4.2c0.7-1.2,2-0.5,2-1.8c-1.8-1.8,0-2.7-0.2-4.7c5-16.1-3.1-32.8-17.2-41.3
			c-2.8-1.9-4.8-2.2-6.9-4c1-5.2,2.9-11,7.2-15c4.4,2.4-7,3.1,18.1,3.3c2.5-1.7,0.9-7.2,1.3-12.4c1.1-21.4-8.2-27.5-29.7-26
			c-10.2-0.1-6.1,2-7.4-15.6c-1.7-4.9-15.1-5.7-18.9-1.1c-1.7,4.8-0.2,10-0.9,14.7c1.6,6.2-23.4-4.2-32.7,8.8
			c-4.4,5.2-4.3,11.5-4.1,18.1c0.9,14.6-4.5,12.3,13.3,12.3c2.3-0.1,4.3,0.4,5.5-1.3c4.6,3,6.1,7.6,7,12.1c6,5.1-27.9,7.4-24.5,43.4
			c0.4,0.5,0.7,0.8,0.9,0.9c-0.7,0.5-0.1,1.5-0.2,2c4.1,10.9-3.8,2.7-3,17.3c0.2,21-0.1,41,0.1,62c0,0.5,0.2,0.8,0.4,1
			c-0.4,0-0.6,0,0.1,0.6c17.6,0.1,35.4-0.2,52.9,0.2c13.3-0.5,25.8,0,39.2-0.2c1.8-0.1,4.2,0.5,4.5-1.2c0-12,0-23.1,0-35.1
			c0-2-0.7-0.1-0.6,0.4c0,0.1-0.1,0.1-0.1,0.2c0.1-0.3,0.1-1.5,0.3-1.4c0-0.6,0-1.2,0-1.7c0,0,0,0.1,0,0.1
			C459.8,407.7,459.3,405.7,459.3,405z M410,253.6c10.9,0.6,11.4,6-0.5,6.7C400,259.4,398.4,254.5,410,253.6z M366.2,363.8
			c-0.2,0-0.3,0.1-0.4,0.1c0.6-1.7-1.9-13.2,4-22.4c4.6-8.6,11.7-13.8,21.2-18.1c2.3-2.6-5.9-11.1,0-11.5c-3.3,1,2.8,1.3,4.8,0.9
			c0,0,0,0,0,0.1c0.1-0.1,0.3-0.1,0.4-0.2c0,0,0,0,0,0c0,0,0,0,0,0c0.6-0.4-0.1-0.6-1.1-0.7c0.5,0,1,0,1.4,0.4
			c4.2,0.7,14.1-11.8,9.4-13.8c-1.7,7-3.3,11.6-12.3,13.2c0,0,0.1,0,0.1,0.1c-0.9-0.1-1.6-0.1-1.8-0.1c-0.2,0-0.3,0.1-0.5,0.1
			c-9.6-3.2-14.6-11.6-7-21.9c-6.5-1.3-4.8,11.8-4.2,16.5c-1.2,2.1-7.3,0.8-11.8,1.1c-4,0.2-3.7-0.2-3.7-3.8
			c-1.7-30.6,6.8-30.9,35.9-30.5c2.2-0.7,0.8-7.4,1.1-11.5c-0.5-3.6,3.5,0,5.9-0.1c11.6,1.8,11.3-9.1,10.9,9.9
			c0.1,1.2,0.1,1.6,1,1.8c9.6,1,18.8-2.1,27.2,2.2c11.7,7.3,7.7,17.2,8.6,31.7c1.4,2.1-13.3,2.3-15.2,0.8
			c-0.7-5.3,0.7-10.6-0.3-15.6c-1.4-0.8-2.4-1.1-3.3-2.5c-1.9-1.6-1.9,1-0.5,1.8c11.6,15.3-16.4,32.5-23,7
			c-2.6,1.2,2.4,13,10.4,14.1c3.3,1.8,10.5-3.4,7.3,2.8c-3.1,10.8-4.3,5.4,7,12.5c19.2,14.2,18.4,27.1,13.5,48
			c-0.6-0.4-1.3,1.6-1.8,2.6c-6,13.1-4.3,13.6-16.5,13.3c0.2,0,0.4-0.1,0.5-0.2c-1.2-0.2-2.4-0.2-3.6,0c0.1,0,0.2,0,0.2,0.1
			c-1.5,0-3.1-0.1-5-0.1c-0.1-0.1-0.3-0.1-0.4,0c-1.8,0-3.7,0-5.8,0c-0.4,0-0.8-0.1-1.2-0.1c0,0,0.1,0.1,0.1,0.1c-0.4,0-0.8,0-1.3,0
			c1.7-1.2-0.7-6.8-4-26.3c1.8-3.6,6.4-5.5,9.5-8.6c0.9-4.4-7.5,5-9.6,6c-2.4,0.6-5-3.6-9.4-6.9c-1.1-0.8-3-3.9-3.7-2
			c2.2,3.5,6.3,5.8,9.5,8.9c3.2,2.3,2.7,5.8,3.6,9.1c1.1,5.9,2.3,12.3,3.4,18.1c0.4,1.6-1.2,1.7-2.1,1.8c-0.9,0-1.7,0.1-2.6,0.1
			c0.1,0,0.1,0,0.2-0.1c-0.5-0.2-1.1-0.2-1.6,0c0.1,0.1,0.2,0.1,0.2,0.1c-2.9,0.1-5.9,0.1-8.9,0c0.4-0.1,0.7-0.1,1.1-0.2
			c-2.6-0.3-5.2-0.1-7.8,0c0.2,0,0.3,0,0.5,0.1c-1.5,0-2.9,0-4.4-0.1c-1.3-0.2-3.8,0-6.5,0.2c0.1,0,0.2-0.1,0.2-0.2
			c-0.4-0.2-0.9-0.2-1.3,0c0.1,0.1,0.2,0.1,0.3,0.2c-0.8,0-1.6,0-2.4,0c0,0,0.1-0.1,0.1-0.1c-0.2-0.2-0.4-0.2-0.6-0.1
			c0,0.1,0.1,0.1,0.1,0.2c-1.7-0.1-3.1-0.5-3.7-1.4C371.8,382.1,367.8,373.1,366.2,363.8z M363,388c0.1,4,0.2,9,0.2,14.3
			C362.8,397.6,362.9,392.8,363,388z M363.9,446.2c0-0.3-0.2-0.5-0.3-0.7c0.2,0.2,0.4,0.4,0.4,0.6
			C364,446.1,363.9,446.1,363.9,446.2z M458.8,379.6C458.8,379.6,458.8,379.6,458.8,379.6C458.8,379.6,458.8,379.6,458.8,379.6
			C458.8,379.6,458.8,379.6,458.8,379.6C458.9,379.6,458.9,379.6,458.8,379.6C458.9,379.6,458.8,379.6,458.8,379.6
			c-0.3-0.1-0.4-0.5-0.5-0.8C458.5,379.1,458.6,379.5,458.8,379.6z M458.4,382.4c-0.1-0.9,0-1.8,0.8-2.2
			C458.5,380.7,458.4,381.5,458.4,382.4z M458.8,386.6c0.1,1.2,0.2,2.5,0,3.6C458.8,389,458.7,387.8,458.8,386.6z M458.9,390.9
			c0,0.1,0,0.3,0,0.4c0-0.1,0-0.2,0-0.3c-0.3,1-0.5,2.1-0.6,3.1C458.1,392.9,458.1,391.8,458.9,390.9z"/>
		<path fill="#231F20" d="M367.7,374.7c-0.1-0.1-0.1-0.3-0.2-0.4C367.4,374.5,367.5,374.7,367.7,374.7z"/>
		<path fill="#231F20" d="M458.9,390.9c0,0,0,0.1-0.1,0.1C458.9,390.9,458.9,390.9,458.9,390.9z"/>
		<path fill="#231F20" d="M369.8,441.9c2,0.1,0.6-7.7,1-12.2c-0.5-0.9,1.2-16.2-1.8-11.5C370,425.9,367.6,435.4,369.8,441.9z"/>
		<path fill="#231F20" d="M382.4,429.9c-0.5-2,1.3-10.9-0.9-12.5c-2-0.1-0.2,12.1-0.9,23.2C383.2,446.7,382.3,431.8,382.4,429.9z"/>
		<path fill="#231F20" d="M392.5,442c2.8,1.4,0.8-15.2,1.4-23.3C391.4,410.2,391.8,439.7,392.5,442z"/>
		<path fill="#231F20" d="M416.8,429.8c0.7-14.7-1.8-19.8-1.3,1.3C414.9,446.1,417.6,446,416.8,429.8z"/>
		<path fill="#231F20" d="M451.1,417.2c-1.2-0.2-0.4,14.5-0.4,24.8c2.4,1.5,0.8-8.7,1.3-12.2C451.4,427.7,453.2,418.8,451.1,417.2z"
			/>
		<path fill="#231F20" d="M428.5,417.6c-1.7-1.7-1.5,1.5-1.4,2.6c0.7,7.1-0.6,15.1,0.3,21.9c2.4,1.1,0.8-8.5,1.2-12.4
			C428.5,425.7,428.9,421.5,428.5,417.6z"/>
		<path fill="#231F20" d="M405.4,441.5c-0.5-8,0.9-16.7-0.5-24.3c-2.1-0.3-0.6,7.9-1,12.5C404.2,430.6,402.6,445.4,405.4,441.5z"/>
		<path fill="#231F20" d="M439.1,442.1c2.3,1,0.8-8.4,1.2-12.3c-0.4-0.7,1-15.8-1.4-12C439.2,425.8,438.2,434.4,439.1,442.1z"/>
	</g>
	<path fill="#FAD10C" d="M383.4,142.5c0.7-1.2,2.3-0.8,3.1-1.8C386.2,142.6,384.3,141.8,383.4,142.5z"/>
	<path fill="#BA115F" d="M365.4,132.9c1.8,0.2,5.6-0.5,7.2,0.5c1,4.4-0.5,9.6,0.1,14.3c2,12.2-10.5,13.3-13.5,6.7
		c-0.9-1.7-1.3-3-1-5.2C358.9,129.9,355.5,133.2,365.4,132.9z"/>
	<path fill="#377BBF" d="M169.2,48c-1.8-10.3-10.4-6.7-10.3-13.4c-0.1-2.1,1.8-1.2,3.7-0.9c27.6,5.1,20.6,17.6,27.1,24.9
		c7.5,8.5,12.5,5.5,16.4,8.1c0.5,4.1,0.8,13.6-1,13.4c-18.9-0.2-22.2,1.9-31.3-4.6C163.7,65.3,170.7,56.9,169.2,48z"/>
	<path fill="#377BBF" d="M176.9,79c2.3,2.4-18.7,1-17.8,0.4c-0.5-12.5,0.1-25.2-0.1-37.9c0-2.4,3.1-0.1,4.3,0.6
		c7.9,5.8,2.9,13,3.3,20.3C166.7,69.1,170.2,77.1,176.9,79z"/>
</g>
</svg>
